<?xml version="1.0" standalone="no"?>
<!DOCTYPE svg PUBLIC "-//W3C//DTD SVG 20010904//EN"
 "http://www.w3.org/TR/2001/REC-SVG-20010904/DTD/svg10.dtd">
<svg version="1.0" xmlns="http://www.w3.org/2000/svg"
 width="300.000000pt" height="300.000000pt" viewBox="0 0 300.000000 300.000000"
 preserveAspectRatio="xMidYMid meet">
<metadata>
Created by potrace 1.14, written by Peter Selinger 2001-2017
</metadata>
<g transform="translate(0.000000,300.000000) scale(0.100000,-0.100000)"
fill="#000000" stroke="none">
<path d="M0 2945 c0 -58 13 -70 44 -40 8 8 19 15 25 15 6 0 11 4 11 9 0 5 17
16 38 24 20 9 46 22 57 31 18 14 12 15 -77 16 l-98 0 0 -55z"/>
<path d="M2830 2990 c0 -5 18 -14 40 -20 28 -8 44 -19 55 -40 9 -17 22 -30 29
-30 8 0 21 -3 30 -6 13 -5 16 3 16 50 l0 56 -85 0 c-48 0 -85 -4 -85 -10z"/>
<path d="M569 2355 c-1 -3 -1 -16 -1 -30 0 -14 0 -63 1 -110 l1 -85 95 0 95 0
0 -745 0 -746 113 3 112 3 3 653 2 652 -50 0 c-27 0 -50 3 -50 6 0 4 24 44 53
90 l52 84 88 0 87 0 0 -745 0 -745 388 2 387 3 0 433 c0 237 2 432 5 432 3 0
36 -129 74 -287 37 -159 84 -354 104 -436 l35 -147 134 0 133 0 -2 858 -3 857
-112 3 -113 3 -1 -408 -1 -408 -102 405 -101 405 -712 3 c-392 1 -713 0 -714
-3z m1151 -855 l0 -630 -160 0 -160 0 0 259 0 259 75 101 c41 55 75 102 75
106 0 3 -34 5 -75 5 l-75 0 0 265 0 265 160 0 160 0 0 -630z"/>
<path d="M0 60 l0 -60 65 0 c55 0 65 3 65 18 0 10 -18 28 -41 42 -22 14 -45
33 -50 43 -5 9 -16 17 -24 17 -12 0 -15 -14 -15 -60z"/>
<path d="M2940 80 c-30 -10 -56 -23 -58 -29 -2 -6 -10 -11 -18 -11 -8 0 -14
-9 -14 -20 0 -18 7 -20 75 -20 l75 0 0 50 c0 28 -1 50 -2 50 -2 -1 -28 -9 -58
-20z"/>
</g>
</svg>
